<?xml version="1.0" encoding="utf-8"?>
<!-- Generator: Adobe Illustrator 24.1.1, SVG Export Plug-In . SVG Version: 6.00 Build 0)  -->
<svg version="1.1" id="Layer_1" xmlns="http://www.w3.org/2000/svg" xmlns:xlink="http://www.w3.org/1999/xlink" x="0px" y="0px"
	 viewBox="0 0 512 512" style="enable-background:new 0 0 512 512;" xml:space="preserve">
<style type="text/css">
	.st0{fill:#ffcf66;}
</style>
<g>
	<path class="st0" d="M256,0c141.4,0,256,114.6,256,256S397.4,512,256,512S0,397.4,0,256S114.6,0,256,0z M256,140.1
		c-9.6,0-17.4,7.8-17.4,17.5l0,79.9l-80,0c-8.8,0-16,6.4-17.3,14.9l-0.2,2.6c0,9.6,7.8,17.4,17.4,17.4h80l0,80
		c0,8.8,6.4,16,14.9,17.3l2.6,0.2c9.6,0,17.5-7.8,17.5-17.5l0-80h80c8.8,0,16-6.4,17.3-14.9l0.2-2.6c0-9.6-7.8-17.4-17.4-17.4l-80,0
		l0-79.9c0-8.8-6.5-16-14.9-17.3L256,140.1z"/>
</g>
</svg>
